 <svg  version="1.0" xmlns="http://www.w3.org/2000/svg"  width="300.000000pt" height="123.000000pt" viewBox="0 0 300.000000 123.000000"  preserveAspectRatio="xMidYMid meet">  <g transform="translate(0.000000,123.000000) scale(0.100000,-0.100000)" fill="#ffffff" stroke="none"> <path d="M1374 1080 l-29 -5 -9 -188 c-4 -106 -4 -297 0 -435 l9 -247 55 -7 c30 -3 71 -3 90 1 l35 7 5 189 5 190 24 -70 c13 -38 50 -125 82 -193 l58 -123 83 3 83 3 2 430 c0 280 -3 434 -9 443 -13 15 -141 16 -170 1 -19 -10 -20 -16 -13 -170 4 -87 5 -159 2 -159 -3 0 -26 44 -52 98 -25 53 -61 126 -80 162 l-34 65 -53 5 c-30 3 -68 3 -84 0z m467 -435 l1 -420 -67 0 -67 0 -57 125 c-32 69 -70 160 -86 203 -26 73 -37 88 -49 68 -3 -4 -6 -97 -7 -205 l-1 -196 -73 0 -72 0 -6 248 c-4 136 -4 325 0 420 l6 172 68 0 67 0 32 -67 c68 -148 136 -277 147 -280 20 -7 25 53 18 196 -4 77 -4 144 0 150 4 8 32 11 76 9 l69 -3 1 -420z"/> <path d="M1954 1079 c-5 -8 -8 -207 -7 -444 l1 -430 108 -3 c59 -1 111 1 115 5 4 4 9 203 12 441 l4 432 -61 0 c-34 0 -84 3 -112 6 -38 5 -54 3 -60 -7z m152 -19 l61 0 -5 -417 -4 -418 -96 -3 -97 -3 0 378 c0 208 1 400 3 427 l2 49 38 -7 c20 -3 64 -6 98 -6z"/> <path d="M183 1070 l-23 -9 1 -348 c0 -191 4 -379 8 -418 5 -38 5 -74 0 -80 -9 -13 130 -17 259 -9 l93 6 46 61 c25 34 61 94 80 134 33 68 35 79 40 205 4 104 2 147 -10 195 -35 133 -112 242 -186 263 -44 12 -278 12 -308 0z m335 -40 c52 -37 95 -95 124 -169 20 -50 23 -73 23 -212 l0 -155 -37 -75 c-20 -40 -56 -99 -79 -130 l-41 -57 -88 -6 c-49 -4 -120 -4 -158 -1 l-69 7 -7 91 c-3 49 -6 233 -6 408 l0 318 23 4 c12 2 79 5 148 6 125 1 126 1 167 -29z"/> <path d="M343 813 c-10 -3 -13 -46 -13 -163 0 -187 4 -196 79 -186 54 7 73 23 102 84 39 84 8 231 -56 260 -26 12 -89 15 -112 5z m119 -40 c31 -34 48 -83 48 -137 0 -43 -27 -114 -51 -132 -21 -17 -85 -24 -98 -11 -7 7 -11 63 -11 159 l0 148 43 0 c34 0 49 -6 69 -27z"/> <path d="M930 1070 l-175 -5 -3 -423 c-2 -395 -1 -423 15 -430 31 -12 491 -8 504 5 11 11 19 156 9 167 -3 2 -75 6 -160 8 l-155 3 -3 64 c-4 76 2 81 74 79 28 0 56 2 63 6 7 5 11 40 11 97 l0 89 -64 0 c-93 0 -96 2 -96 70 l0 58 78 5 c42 3 112 6 155 6 43 0 82 3 87 6 6 4 10 48 10 100 0 108 2 106 -103 103 -40 -1 -151 -5 -247 -8z m332 -32 c2 -13 2 -51 0 -85 l-4 -63 -121 -1 c-67 0 -140 -3 -162 -7 l-40 -7 -3 -72 c-3 -86 5 -95 95 -91 l58 3 3 -77 3 -78 -64 0 c-36 0 -68 -5 -75 -12 -7 -7 -12 -42 -12 -89 l0 -76 38 -7 c20 -3 95 -6 166 -6 l129 0 -6 -66 c-4 -37 -8 -68 -10 -70 -8 -8 -323 -16 -400 -9 l-87 7 2 406 3 407 160 5 c343 12 322 13 327 -12z"/> <path d="M2445 1067 c-90 -30 -135 -68 -176 -147 -35 -69 -34 -179 3 -241 36 -60 78 -96 131 -109 146 -35 177 -55 177 -111 0 -34 -29 -59 -68 -59 -34 0 -72 29 -72 55 0 20 -32 26 -125 23 l-80 -3 -3 -34 c-8 -77 56 -168 147 -213 62 -31 180 -37 252 -13 59 20 120 75 145 132 11 24 17 66 18 113 1 95 -30 161 -105 219 -44 36 -75 49 -188 80 -35 10 -47 34 -35 68 21 61 109 52 128 -14 9 -28 15 -33 54 -39 49 -7 131 1 145 15 5 5 8 41 5 80 -3 59 -8 76 -34 108 -63 79 -218 123 -319 90z m179 -24 c105 -29 180 -128 161 -213 -6 -25 -12 -29 -55 -35 -71 -10 -104 0 -117 35 -14 36 -70 66 -107 56 -61 -15 -87 -85 -47 -125 11 -11 39 -25 63 -31 90 -23 134 -45 180 -91 129 -129 87 -345 -79 -405 -57 -20 -154 -17 -216 6 -84 32 -157 122 -157 195 0 25 1 25 80 25 76 0 81 -1 90 -24 21 -55 104 -75 154 -35 20 15 26 29 26 58 0 69 -36 98 -161 125 -60 13 -82 23 -106 49 -97 102 -94 247 6 347 76 76 167 96 285 63z"/> </g> </svg> 